<svg width="19" height="18" viewBox="0 0 19 18" fill="none" xmlns="http://www.w3.org/2000/svg">
<path d="M0.414062 2.02107C0.414062 1.43524 0.61894 0.951941 1.02868 0.571172C1.43842 0.190385 1.9711 0 2.62668 0C3.27057 0 3.79152 0.18745 4.18956 0.562384C4.5993 0.949024 4.80418 1.45281 4.80418 2.07379C4.80418 2.63618 4.60516 3.10482 4.20712 3.47975C3.79738 3.86639 3.25886 4.05971 2.59156 4.05971H2.574C1.93011 4.05971 1.40916 3.86639 1.01112 3.47975C0.613075 3.09311 0.414062 2.60688 0.414062 2.02107ZM0.642348 17.3988V5.65899H4.54077V17.3988H0.642348ZM6.70071 17.3988H10.5991V10.8435C10.5991 10.4334 10.646 10.1171 10.7396 9.89445C10.9035 9.49609 11.1523 9.15924 11.4859 8.88392C11.8196 8.60858 12.2381 8.47092 12.7415 8.47092C14.0527 8.47092 14.7083 9.35549 14.7083 11.1247V17.3988H18.6067V10.6677C18.6067 8.93371 18.197 7.61855 17.3775 6.72225C16.558 5.82595 15.4751 5.3778 14.1288 5.3778C12.6186 5.3778 11.442 6.02806 10.5991 7.32857V7.36372H10.5816L10.5991 7.32857V5.65899H6.70071C6.72411 6.03391 6.73583 7.19968 6.73583 9.15632C6.73583 11.1129 6.72411 13.8604 6.70071 17.3988Z" fill="white"/>
</svg>
